<?xml version="1.0" encoding="UTF-8"?>
<svg xmlns="http://www.w3.org/2000/svg" xmlns:xlink="http://www.w3.org/1999/xlink" viewBox="0 0 64 64" version="1.1" width="64px" height="64px">
<g id="surface1">
<path style=" fill:#85CBF8;" d="M 32 4 C 16.558594 4 4 15.660156 4 30 C 4.050781 37.878906 7.785156 45.277344 14.089844 50 L 14.089844 59.089844 C 14.085938 59.421875 14.261719 59.726563 14.542969 59.894531 C 14.828125 60.0625 15.179688 60.070313 15.46875 59.910156 L 24.359375 55 C 26.851563 55.660156 29.421875 55.996094 32 56 C 47.441406 56 60 44.339844 60 30 C 60 15.660156 47.441406 4 32 4 Z "/>
<path style=" fill:#6FC6F0;" d="M 54.691406 36 C 53.222656 35.988281 51.878906 36.828125 51.238281 38.148438 C 47.613281 45.425781 40.128906 49.976563 32 49.851563 C 30.6875 49.847656 29.378906 49.730469 28.089844 49.5 C 26.183594 49.175781 24.238281 49.800781 22.878906 51.179688 L 13.570313 60.488281 C 13.835938 60.945313 14.410156 61.117188 14.878906 60.878906 L 24.078125 55.828125 C 26.667969 56.5 29.328125 56.835938 32 56.828125 C 43.480469 56.828125 53.421875 50.601563 58.109375 41.589844 C 58.714844 40.398438 58.65625 38.980469 57.960938 37.839844 C 57.261719 36.703125 56.027344 36.003906 54.691406 36 Z "/>
<path style=" fill:#9FDDFF;" d="M 9.800781 17 C 10.394531 17.605469 11.21875 17.929688 12.066406 17.894531 C 12.914063 17.859375 13.707031 17.464844 14.25 16.808594 C 18.78125 11.792969 25.238281 8.949219 32 9 C 36.296875 8.984375 40.519531 10.117188 44.230469 12.28125 C 45.433594 13.027344 46.996094 12.847656 48 11.851563 C 48.671875 11.195313 49 10.265625 48.886719 9.335938 C 48.769531 8.40625 48.230469 7.582031 47.421875 7.109375 C 42.738281 4.394531 37.414063 2.976563 32 3 C 23.511719 2.933594 15.394531 6.484375 9.679688 12.761719 C 8.535156 13.957031 8.574219 15.855469 9.769531 17 Z "/>
<path style=" fill:#FAEFDE;" d="M 35.191406 38.398438 L 27.859375 31.578125 C 27.515625 31.214844 26.96875 31.128906 26.53125 31.371094 L 16.75 36.71875 L 28.648438 23.078125 L 36.179688 29.921875 C 36.527344 30.28125 37.074219 30.363281 37.511719 30.121094 L 47 25 Z "/>
<path style=" fill:#8D6C9F;" d="M 32 2 C 15.460938 2 2 14.488281 2 29.851563 C 2.0625 38.285156 6.0625 46.203125 12.808594 51.261719 L 12.808594 61 C 12.808594 61.355469 12.996094 61.679688 13.300781 61.863281 C 13.601563 62.042969 13.980469 62.050781 14.289063 61.878906 L 23.808594 56.648438 C 26.484375 57.347656 29.234375 57.703125 32 57.699219 C 48.539063 57.699219 62 45.210938 62 29.851563 C 62 14.488281 48.539063 2 32 2 Z M 32 55.699219 C 29.28125 55.699219 26.570313 55.335938 23.949219 54.609375 C 23.699219 54.539063 23.429688 54.574219 23.199219 54.699219 L 14.808594 59.308594 L 14.808594 50.761719 C 14.808594 50.445313 14.660156 50.148438 14.410156 49.960938 C 7.9375 45.296875 4.070313 37.828125 4 29.851563 C 4 15.601563 16.558594 4 32 4 C 47.441406 4 60 15.601563 60 29.851563 C 60 44.101563 47.441406 55.699219 32 55.699219 Z "/>
<path style=" fill:#8D6C9F;" d="M 50.25 21.460938 L 36.691406 29 L 29.691406 21.679688 C 29.484375 21.5 29.230469 21.394531 28.960938 21.371094 C 28.6875 21.371094 28.429688 21.484375 28.238281 21.679688 L 12.359375 38.46875 C 12.066406 38.832031 12.0625 39.351563 12.355469 39.71875 C 12.644531 40.085938 13.148438 40.203125 13.570313 40 L 27.300781 32.5 L 34.148438 39.808594 C 34.339844 40.011719 34.601563 40.128906 34.878906 40.128906 C 35.15625 40.132813 35.417969 40.019531 35.609375 39.820313 L 51.460938 23 C 51.792969 22.640625 51.820313 22.09375 51.519531 21.707031 C 51.21875 21.316406 50.679688 21.207031 50.25 21.441406 Z M 34.878906 37.699219 L 28.21875 30.601563 C 27.90625 30.261719 27.402344 30.183594 27 30.410156 L 18.109375 35.269531 L 28.941406 23.78125 L 35.78125 30.898438 C 36.09375 31.226563 36.59375 31.300781 36.988281 31.078125 L 45.621094 26.308594 Z "/>
<path style=" fill:#8D6C9F;" d="M 21.378906 12.398438 C 21.527344 12.398438 21.675781 12.363281 21.808594 12.300781 C 26.058594 10.296875 30.800781 9.582031 35.449219 10.25 C 36.003906 10.332031 36.515625 9.949219 36.59375 9.394531 C 36.675781 8.84375 36.292969 8.332031 35.738281 8.25 C 30.695313 7.523438 25.546875 8.296875 20.941406 10.480469 C 20.519531 10.683594 20.296875 11.152344 20.402344 11.605469 C 20.507813 12.058594 20.914063 12.382813 21.378906 12.378906 Z "/>
<path style=" fill:#8D6C9F;" d="M 40 11.378906 C 41.007813 11.742188 41.992188 12.179688 42.941406 12.679688 C 43.429688 12.941406 44.035156 12.753906 44.296875 12.265625 C 44.554688 11.777344 44.367188 11.167969 43.878906 10.910156 C 42.847656 10.367188 41.777344 9.894531 40.679688 9.5 C 40.339844 9.367188 39.957031 9.425781 39.675781 9.660156 C 39.394531 9.890625 39.261719 10.257813 39.332031 10.617188 C 39.398438 10.972656 39.65625 11.265625 40 11.378906 Z "/>
<path style=" fill:#8D6C9F;" d="M 32 47.070313 C 31.449219 47.070313 31 47.519531 31 48.070313 L 31 50 C 31 50.550781 31.449219 51 32 51 C 32.550781 51 33 50.550781 33 50 L 33 48.070313 C 33 47.519531 32.550781 47.070313 32 47.070313 Z "/>
<path style=" fill:#8D6C9F;" d="M 38.191406 47.160156 C 38.035156 46.628906 37.480469 46.324219 36.949219 46.480469 C 36.417969 46.632813 36.117188 47.191406 36.269531 47.71875 L 36.808594 49.570313 C 36.9375 50.011719 37.351563 50.308594 37.808594 50.289063 C 37.902344 50.304688 37.996094 50.304688 38.089844 50.289063 C 38.347656 50.207031 38.558594 50.019531 38.679688 49.777344 C 38.796875 49.535156 38.8125 49.253906 38.71875 49 Z "/>
<path style=" fill:#8D6C9F;" d="M 22.429688 44.71875 C 22.203125 44.578125 21.933594 44.535156 21.671875 44.59375 C 21.414063 44.652344 21.191406 44.8125 21.050781 45.039063 L 20 46.699219 C 19.707031 47.167969 19.851563 47.789063 20.320313 48.078125 C 20.789063 48.371094 21.40625 48.230469 21.699219 47.761719 L 22.699219 46.101563 C 23.003906 45.644531 22.882813 45.027344 22.429688 44.71875 Z "/>
<path style=" fill:#8D6C9F;" d="M 42.949219 45 C 42.65625 44.53125 42.039063 44.386719 41.570313 44.679688 C 41.101563 44.972656 40.957031 45.589844 41.25 46.058594 L 42.25 47.71875 C 42.53125 48.203125 43.152344 48.367188 43.636719 48.085938 C 44.117188 47.804688 44.28125 47.183594 44 46.699219 Z "/>
<path style=" fill:#8D6C9F;" d="M 27.050781 46.46875 C 26.519531 46.316406 25.964844 46.621094 25.808594 47.148438 L 25.28125 49 C 25.203125 49.261719 25.238281 49.542969 25.375 49.777344 C 25.507813 50.015625 25.734375 50.183594 26 50.25 C 26.09375 50.261719 26.1875 50.261719 26.28125 50.25 C 26.738281 50.269531 27.152344 49.972656 27.28125 49.53125 L 27.820313 47.679688 C 27.882813 47.417969 27.835938 47.140625 27.691406 46.914063 C 27.546875 46.683594 27.316406 46.523438 27.050781 46.46875 Z "/>
</g>
</svg>
